# xmcd
#
# Track frame offsets:
#	150
#	206210
#	226314
#	248455
#	275221
#
# Disc length: 3926 seconds
#
# Revision: 1
# Processed by: cddbd v1.5.1PL0 Copyright (c) Steve Scherf et al.
# Submitted via: CDex 1.50Beta5
#
DISCID=440f5405
DTITLE=I've - Sweet Palace
DYEAR=1900
DGENRE=Game
TTITLE0=Data
TTITLE1=I will…
TTITLE2=One small day
TTITLE3=Sweet〜恋しくて〜
TTITLE4=I Know Gotta Love You
EXTD=
EXTT0=
EXTT1=
EXTT2=
EXTT3=
EXTT4=
PLAYORDER=
